<!-- <?xml version="1.0" encoding="utf-8"?> -->
<!-- Generator: Adobe Illustrator 21.1.0, SVG Export Plug-In . SVG Version: 6.00 Build 0)  -->
<!-- <svg version="1.1" id="Layer_1" xmlns="http://www.w3.org/2000/svg" xmlns:xlink="http://www.w3.org/1999/xlink" x="0px" y="0px"
	 viewBox="0 0 76 76" style="enable-background:new 0 0 76 76;" xml:space="preserve">
<g>
	<path d="M71.8,49.6H4.2c-2.3,0-4.3,1.9-4.3,4.3v3.5c0,2.3,1.9,4.3,4.3,4.3h1v1c0,5.5,4.5,9.9,9.9,9.9H61c5.5,0,9.9-4.5,9.9-9.9v-1
		h1c2.3,0,4.3-1.9,4.3-4.3v-3.5C76.1,51.5,74.2,49.6,71.8,49.6z M67.9,62.6c0,3.8-3.1,6.9-6.9,6.9H15c-3.8,0-6.9-3.1-6.9-6.9v-1
		h59.8V62.6z M73.1,57.3c0,0.7-0.6,1.3-1.3,1.3H4.2c-0.7,0-1.3-0.6-1.3-1.3v-3.5c0-0.7,0.6-1.3,1.3-1.3h67.7c0.7,0,1.3,0.6,1.3,1.3
		V57.3z"/>
	<polygon points="16.1,41.4 21.6,45.4 27,41.4 32.5,45.4 38,41.4 43.5,45.4 48.9,41.4 54.4,45.4 59.9,41.4 65.4,45.4 71.8,40.7
		70,38.3 65.4,41.7 59.9,37.7 54.4,41.7 48.9,37.7 43.5,41.7 38,37.7 32.5,41.7 27,37.7 21.6,41.7 16.1,37.7 10.6,41.7 6,38.3
		4.2,40.7 10.6,45.4 	"/>
	<path d="M70.8,34.6c0-0.6,0.1-2.6,0-3C70.2,16,55.7,3.5,38,3.5C20.3,3.5,5.8,16,5.2,31.6c0,0.4,0,2.4,0,3H70.8z M38,6.5
		c16,0,29.2,11.2,29.8,25.1H8.2C8.8,17.7,22,6.5,38,6.5z"/>
	<circle cx="38" cy="18.6" r="2"/>
	<circle cx="30" cy="13.6" r="2"/>
	<circle cx="46" cy="13.6" r="2"/>
</g>
</svg> -->

<svg viewBox="0 0 76 76" width="76" height="76" fill="#81b3d2" xmlns="http://www.w3.org/2000/svg" xmlns:xlink="http://www.w3.org/1999/xlink">
  <path d="M71.8 49.6H4.2c-2.3 0-4.3 1.9-4.3 4.3v3.5c0 2.3 1.9 4.3 4.3 4.3h1v1c0 5.5 4.5 9.9 9.9 9.9H61c5.5 0 9.9-4.5 9.9-9.9v-1h1c2.3 0 4.3-1.9 4.3-4.3v-3.5c-.1-2.4-2-4.3-4.4-4.3zm-3.9 13c0 3.8-3.1 6.9-6.9 6.9H15c-3.8 0-6.9-3.1-6.9-6.9v-1h59.8v1zm5.2-5.3c0 .7-.6 1.3-1.3 1.3H4.2c-.7 0-1.3-.6-1.3-1.3v-3.5c0-.7.6-1.3 1.3-1.3h67.7c.7 0 1.3.6 1.3 1.3v3.5zM16.1 41.4l5.5 4 5.4-4 5.5 4 5.5-4 5.5 4 5.4-4 5.5 4 5.5-4 5.5 4 6.4-4.7-1.8-2.4-4.6 3.4-5.5-4-5.5 4-5.5-4-5.4 4-5.5-4-5.5 4-5.5-4-5.4 4-5.5-4-5.5 4L6 38.3l-1.8 2.4 6.4 4.7zM70.8 34.6c0-.6.1-2.6 0-3C70.2 16 55.7 3.5 38 3.5 20.3 3.5 5.8 16 5.2 31.6v3h65.6zM38 6.5c16 0 29.2 11.2 29.8 25.1H8.2C8.8 17.7 22 6.5 38 6.5z"/>
  <circle cx="38" cy="18.6" r="2"/>
  <circle cx="30" cy="13.6" r="2"/>
  <circle cx="46" cy="13.6" r="2"/>
</svg>
