<svg viewBox="0 0 76 76" width="76" height="76" fill="#81b3d2" xmlns="http://www.w3.org/2000/svg" xmlns:xlink="http://www.w3.org/1999/xlink">
  <path d="M30.2 67.2h16v-24h-16v24zm13-3H33.1v-18h10.1v18z"/>
  <path d="M73.3 41.3l2.1-2.1-9.9-9.9v-27H51.6v13.2L38 1.8.7 39.2l2.1 2.1 7.8-7.8v37.8h-4v2.9h63.9v-2.9h-5.1V33.4l7.9 7.9zM54.6 5.2h7.9v21.1l-7.9-7.9V5.2zm7.9 66h-49V30.5L38 6l24.5 24.5v40.7z"/>
  <path d="M30.4 29c0 4.3 3.5 7.8 7.7 7.8s7.8-3.5 7.8-7.8-3.5-7.8-7.8-7.8-7.7 3.6-7.7 7.8zm7.8-4.9c2.7 0 5 2.2 5 5s-2.2 5-5 5-5-2.2-5-5 2.2-5 5-5zM17.6 43.2h3v3.9h-3zM23.5 43.2h3v3.9h-3zM17.6 49.2h3v3.9h-3zM23.5 49.2h3v3.9h-3zM49.5 43.2h3v3.9h-3zM55.4 43.2h3v3.9h-3zM49.5 49.2h3v3.9h-3zM55.4 49.2h3v3.9h-3z"/>
</svg>
