<svg width="76" height="76" fill="#81b3d2" xmlns="http://www.w3.org/2000/svg"><path d="M66.7 22.7H42.3C55.9 15.9 57 11.6 56.5 9.2c-1.1-3.9-5.6-6.9-9.8-5.3-5.5 2.1-7 10.3-8.5 16.2-1.9-6-3.7-13.6-8-17.5-1.2-1.1-3-2.2-5.7-2-4 .4-9.7 5.3-7.3 10.8 2.2 5.3 9.5 8.7 14.4 11.3H9.3c-1.6 0-2.8 1.3-2.8 2.8v11.2c0 1.6 1.3 2.8 2.8 2.8h.3v36h57v-36h.1c1.6 0 2.8-1.3 2.8-2.8V25.5c0-1.5-1.3-2.8-2.8-2.8zM48.3 6.3c2.1-.3 4.9 1.3 5.2 3.2.4 2.7-3.3 5.2-5 6.3-2.5 1.7-4.9 2.6-7.2 4 .8-3.6 2.5-12.8 7-13.5zm-22.6 9.9c-2.2-1.5-6.4-4.4-6.3-7.7.1-3.6 5.6-6.5 8.7-3.8 3.8 3.3 5.6 11 7 16.4-3.2-1.6-6.2-2.8-9.4-4.9zm5.9 56.4H12.5V39.5h19.1v33.1zm0-36.1H9.5V25.7h22.1v10.8zm10 36.1h-7.1V25.7h7.1v46.9zm22 0h-19V39.5h19.1v33.1zm2.9-36.1H44.6V25.7h21.9v10.8z"/></svg>